<?xml version="1.0" encoding="UTF-8" standalone="no"?>
<svg
   xmlns:dc="http://purl.org/dc/elements/1.1/"
   xmlns:cc="http://creativecommons.org/ns#"
   xmlns:rdf="http://www.w3.org/1999/02/22-rdf-syntax-ns#"
   xmlns:svg="http://www.w3.org/2000/svg"
   xmlns="http://www.w3.org/2000/svg"
   xmlns:sodipodi="http://sodipodi.sourceforge.net/DTD/sodipodi-0.dtd"
   xmlns:inkscape="http://www.inkscape.org/namespaces/inkscape"
   width="300"
   height="340"
   viewBox="0 0 300 340"
   version="1.1"
   id="svg4154"
   sodipodi:docname="grid-kit-8.svg"
   inkscape:version="0.92.5 (2060ec1f9f, 2020-04-08)"
   inkscape:export-filename="/home/dinosaur/Downloads/grid-kit-6.svg.png"
   inkscape:export-xdpi="780.19"
   inkscape:export-ydpi="780.19"
   enable-background="new">
  <metadata
     id="metadata4158">
    <rdf:RDF>
      <cc:Work
         rdf:about="">
        <dc:format>image/svg+xml</dc:format>
        <dc:type
           rdf:resource="http://purl.org/dc/dcmitype/StillImage" />
        <dc:title></dc:title>
      </cc:Work>
    </rdf:RDF>
  </metadata>
  <sodipodi:namedview
     pagecolor="#ffffff"
     bordercolor="#666666"
     borderopacity="1"
     objecttolerance="10"
     gridtolerance="10"
     guidetolerance="10"
     inkscape:pageopacity="0"
     inkscape:pageshadow="2"
     inkscape:window-width="3840"
     inkscape:window-height="2114"
     id="namedview4156"
     showgrid="false"
     inkscape:zoom="2.7764706"
     inkscape:cx="77.877235"
     inkscape:cy="257.52364"
     inkscape:window-x="0"
     inkscape:window-y="22"
     inkscape:window-maximized="0"
     inkscape:current-layer="layer5"
     inkscape:snap-intersection-paths="true"
     inkscape:snap-object-midpoints="true"
     inkscape:snap-midpoints="true"
     inkscape:snap-others="true"
     inkscape:snap-nodes="true"
     inkscape:object-nodes="true">
    <inkscape:grid
       id="grid6409"
       type="xygrid" />
  </sodipodi:namedview>
  <!-- basic hexagon shape -->
  <!-- http://www.mathopenref.com/coordpolycalc.html, 0, 0, 6, 150, 30 -->
  <defs
     id="defs4146">
    <inkscape:perspective
       sodipodi:type="inkscape:persp3d"
       inkscape:vp_x="-715.65376 : -28.329263 : 1"
       inkscape:vp_y="1.1024842e-13 : 2531.729 : 0"
       inkscape:vp_z="1269.8894 : -23.551743 : 1"
       inkscape:persp3d-origin="1157.5158 : 302.60212 : 1"
       id="perspective6391" />
  </defs>
  <g
     inkscape:groupmode="layer"
     id="layer5"
     inkscape:label="faces"
     style="display:inline">
    <path
       style="display:inline;fill:#ff00ff;fill-opacity:1;stroke:none;stroke-width:1px;stroke-linecap:butt;stroke-linejoin:miter;stroke-opacity:1;paint-order:normal"
       d="m 20,245 130,-75 130,75 -130,75 z"
       id="path6926"
       inkscape:connector-curvature="0" />
    <path
       style="display:inline;fill:#00ffff;stroke:#000000;stroke-width:1px;stroke-linecap:butt;stroke-linejoin:miter;stroke-opacity:1;fill-opacity:1"
       d="M 20,95 150,20 V 170 L 20,245 Z"
       id="path6817"
       inkscape:connector-curvature="0" />
    <path
       style="display:inline;fill:#ffff00;stroke:#000000;stroke-width:1px;stroke-linecap:butt;stroke-linejoin:miter;stroke-opacity:1;fill-opacity:1"
       d="M 150,20 280,95 V 245 L 150,170 V 20"
       id="path6858"
       inkscape:connector-curvature="0" />
    <path
       id="path838"
       d="m 199.22305,273.39791 c -13.05476,7.53159 -30.76082,11.7628 -49.22305,11.7628 -18.46223,0 -36.16828,-4.23121 -49.22304,-11.7628 -13.054765,-7.5316 -20.388854,-17.74663 -20.388854,-28.39792 0,-10.65128 7.334089,-20.86631 20.388854,-28.3979 l 98.44609,56.79582 v 0"
       style="fill:#000000;fill-opacity:1;stroke:#000000;stroke-width:0.77600002;stroke-miterlimit:4;stroke-dasharray:none;stroke-opacity:1"
       inkscape:connector-curvature="0"
       sodipodi:nodetypes="csssccc" />
  </g>
  <g
     inkscape:groupmode="layer"
     id="layer4"
     inkscape:label="edges"
     style="display:inline">
    <polygon
       points="-130,-75 -130,75 -130,75 0,150 0,150 130,75 130,75 130,-75 0,-150 -130,-75 "
       transform="translate(150,170)"
       id="polygon4126"
       style="fill:none;fill-opacity:1;stroke:#000000;stroke-width:15;stroke-linejoin:miter;stroke-opacity:1" />
    <path
       style="fill:none;stroke:#000000;stroke-width:15;stroke-linecap:butt;stroke-linejoin:miter;stroke-miterlimit:4;stroke-dasharray:none;stroke-opacity:1"
       d="M 20,245 150,170"
       id="path6811"
       inkscape:connector-curvature="0" />
    <path
       style="fill:none;stroke:#000000;stroke-width:15;stroke-linecap:butt;stroke-linejoin:miter;stroke-miterlimit:4;stroke-dasharray:none;stroke-opacity:1"
       d="m 150,170 130,75"
       id="path6813"
       inkscape:connector-curvature="0" />
    <path
       style="fill:none;stroke:#000000;stroke-width:15;stroke-linecap:butt;stroke-linejoin:miter;stroke-miterlimit:4;stroke-dasharray:none;stroke-opacity:1"
       d="M 150,20 V 170"
       id="path6815"
       inkscape:connector-curvature="0" />
  </g>
  <g
     inkscape:groupmode="layer"
     id="layer1"
     inkscape:label="center helpers"
     style="display:none">
    <g
       id="g6908">
      <path
         inkscape:connector-curvature="0"
         id="path6883"
         d="M 20,245 150,20"
         style="fill:none;stroke:#000000;stroke-width:1px;stroke-linecap:butt;stroke-linejoin:miter;stroke-opacity:1" />
      <path
         inkscape:connector-curvature="0"
         id="path6885"
         d="M 20,95 150,170 280,95"
         style="fill:none;stroke:#000000;stroke-width:1px;stroke-linecap:butt;stroke-linejoin:miter;stroke-opacity:1" />
      <path
         inkscape:connector-curvature="0"
         id="path6887"
         d="M 150,20 280,245"
         style="fill:none;stroke:#000000;stroke-width:1px;stroke-linecap:butt;stroke-linejoin:miter;stroke-opacity:1" />
    </g>
    <path
       style="fill:none;stroke:#000000;stroke-width:1px;stroke-linecap:butt;stroke-linejoin:miter;stroke-opacity:1"
       d="M 20,245 H 280"
       id="path912"
       inkscape:connector-curvature="0" />
    <path
       style="fill:none;stroke:#000000;stroke-width:1px;stroke-linecap:butt;stroke-linejoin:miter;stroke-opacity:1"
       d="M 150,170 V 320"
       id="path914"
       inkscape:connector-curvature="0" />
  </g>
  <g
     inkscape:groupmode="layer"
     id="layer3"
     inkscape:label="center holes">
    <path
       inkscape:connector-curvature="0"
       id="path6413"
       d="m 215,152.71631 c -4.59709,-2.65217 -9.00589,-7.30284 -12.25652,-12.92894 -3.25063,-5.62609 -5.07681,-11.76673 -5.07681,-17.07106 0,-5.30433 1.82618,-9.33784 5.07681,-11.21321 3.25063,-1.87536 7.65943,-1.43896 12.25652,1.21321 4.59709,2.65216 9.00589,7.30284 12.25652,12.92893 3.25063,5.62609 5.07681,11.76674 5.07681,17.07107 0,5.30433 -1.82618,9.33784 -5.07681,11.2132 -3.25063,1.87536 -7.65943,1.43896 -12.25652,-1.2132 0,0 0,0 0,0"
       style="fill:#000000;fill-opacity:1;stroke:#000000;stroke-width:5.33300018;stroke-miterlimit:4;stroke-dasharray:none;stroke-opacity:1" />
    <path
       inkscape:connector-curvature="0"
       id="path6413-4"
       d="m 85.000002,152.5 c -4.597086,2.65216 -9.005887,3.08856 -12.256518,1.2132 -3.25063,-1.87536 -5.076816,-5.90887 -5.076815,-11.2132 0,-5.30433 1.826185,-11.44498 5.076815,-17.07107 3.250631,-5.62609 7.659432,-10.27677 12.256518,-12.92893 4.597086,-2.65217 9.005887,-3.08857 12.256518,-1.21321 3.25063,1.87537 5.07681,5.90888 5.07681,11.21321 0,5.30433 -1.82618,11.44497 -5.07681,17.07106 -3.250631,5.6261 -7.659432,10.27677 -12.256518,12.92894 0,0 0,0 0,0"
       style="fill:#000000;fill-opacity:1;stroke:#000000;stroke-width:5.33333349;stroke-miterlimit:4;stroke-dasharray:none;stroke-opacity:1" />
  </g>
</svg>
