<?xml version="1.0" encoding="UTF-8" standalone="no"?>
<svg
   xmlns:dc="http://purl.org/dc/elements/1.1/"
   xmlns:cc="http://creativecommons.org/ns#"
   xmlns:rdf="http://www.w3.org/1999/02/22-rdf-syntax-ns#"
   xmlns:svg="http://www.w3.org/2000/svg"
   xmlns="http://www.w3.org/2000/svg"
   xmlns:xlink="http://www.w3.org/1999/xlink"
   xmlns:sodipodi="http://sodipodi.sourceforge.net/DTD/sodipodi-0.dtd"
   xmlns:inkscape="http://www.inkscape.org/namespaces/inkscape"
   width="300"
   height="340"
   viewBox="0 0 300 340"
   version="1.1"
   id="svg4154"
   sodipodi:docname="village-kit-1.svg"
   inkscape:version="0.92.4 (5da689c313, 2019-01-14)">
  <metadata
     id="metadata4158">
    <rdf:RDF>
      <cc:Work
         rdf:about="">
        <dc:format>image/svg+xml</dc:format>
        <dc:type
           rdf:resource="http://purl.org/dc/dcmitype/StillImage" />
        <dc:title></dc:title>
      </cc:Work>
    </rdf:RDF>
  </metadata>
  <sodipodi:namedview
     pagecolor="#ffffff"
     bordercolor="#666666"
     borderopacity="1"
     objecttolerance="10"
     gridtolerance="10"
     guidetolerance="10"
     inkscape:pageopacity="0"
     inkscape:pageshadow="2"
     inkscape:window-width="1274"
     inkscape:window-height="2126"
     id="namedview4156"
     showgrid="false"
     inkscape:zoom="1.9632612"
     inkscape:cx="194.18881"
     inkscape:cy="-64.968895"
     inkscape:window-x="1282"
     inkscape:window-y="4"
     inkscape:window-maximized="0"
     inkscape:current-layer="svg4154" />
  <!-- basic hexagon shape -->
  <!-- http://www.mathopenref.com/coordpolycalc.html, 0, 0, 6, 150, 30 -->
  <polygon
     points="     130,-75,0,-150     0,-150,-130,-75     -130,-75,-130,75     -130,75,0,150     0,150,130,75     130,75,130,-75     "
     transform="translate(150,170)"
     fill="#222"
     stroke="#FFCC44"
     stroke-width="15"
     stroke-linejoin="miter"
     id="polygon4126"
     style="stroke:#000000;stroke-opacity:1;fill-opacity:1;fill:url(#radialGradient5064)" />
  <defs
     id="defs4146">
    <linearGradient
       id="inner"
       inkscape:collect="always">
      <stop
         id="stop5066"
         offset="0"
         style="stop-color:#f1f2b5;stop-opacity:1" />
      <stop
         id="stop5068"
         offset="1"
         style="stop-color:#135058;stop-opacity:1" />
    </linearGradient>
    <radialGradient
       inkscape:collect="always"
       xlink:href="#inner"
       id="radialGradient5064"
       cx="0"
       cy="0"
       fx="0"
       fy="0"
       r="137.5"
       gradientTransform="scale(1,1.1538811)"
       gradientUnits="userSpaceOnUse" />
  </defs>
  <g
     id="g4233"
     transform="matrix(3.521315,0,0,3.521315,-930.56625,-1798.3554)">
    <g
       id="color"
       transform="translate(271.86441,523.70213)">
      <rect
         id="rect3793"
         height="18.113899"
         width="26.8836"
         y="36.0532"
         x="37.075298"
         style="fill:#ffffff" />
      <polygon
         id="polygon3795"
         points="38.1,36 63.5,36 50.2353,23.2 "
         stroke-miterlimit="10"
         style="fill:#ea5a47;stroke:#ea5a47;stroke-width:2;stroke-linecap:round;stroke-linejoin:round;stroke-miterlimit:10" />
      <path
         id="path3797"
         d="m 47.3,26 -6.4,6.0595 v -8.5733 c 0,-0.9313 0.7549,-1.4162 1.6862,-1.4162 h 3.0276 c 0.9313,0 1.6862,0.4849 1.6862,1.4162 0,0 0,2.5138 0,2.5138 z"
         inkscape:connector-curvature="0"
         style="fill:#ea5a47" />
      <rect
         id="rect3799"
         height="12"
         width="6"
         y="42"
         x="43"
         style="fill:#a57939" />
      <rect
         id="rect3801"
         height="5"
         width="6"
         y="42"
         x="54"
         style="fill:#92d3f5" />
      <path
         id="path3803"
         d="m 41.0059,28.3393 c 0,-3.3123 -3.4447,-6.0025 -7.6937,-6.0025 -0.3549,0.0029 -0.7095,0.025 -1.0622,0.0662 -1.7995,-3.4553 -5.7065,-5.8554 -10.2499,-5.8554 -6.2478,0 -11.3122,4.5286 -11.3122,10.1144 0.0012,0.3692 0.0247,0.738 0.0704,1.1043 C 7.9656,28.6665 6,30.8102 6,33.3136 c 0,3.3123 3.4446,6.0025 7.6936,6.0025 1.6151,0.0139 3.2056,-0.4022 4.6137,-1.207 1.8177,1.4766 4.7264,2.4385 8.0154,2.4385 5.5105,0 9.9776,-2.6875 9.9776,-6.0025 -9e-4,-0.2191 -0.0214,-0.4377 -0.0612,-0.6531 2.7966,-0.9016 4.7668,-3.0467 4.7668,-5.5527 z"
         inkscape:connector-curvature="0"
         style="fill:#b1cc33" />
    </g>
    <g
       id="line"
       transform="translate(271.86441,523.70213)">
      <polyline
         id="polyline3809"
         points="46,27 50.2353,23 64,35.0976 64,54 38,54 38,41.5482"
         stroke-miterlimit="10"
         style="fill:none;stroke:#000000;stroke-width:2;stroke-linecap:round;stroke-linejoin:round;stroke-miterlimit:10" />
      <rect
         id="rect3811"
         stroke-miterlimit="10"
         height="12"
         width="6"
         y="42"
         x="43"
         style="fill:none;stroke:#000000;stroke-width:2;stroke-linecap:round;stroke-linejoin:round;stroke-miterlimit:10" />
      <rect
         id="rect3813"
         stroke-miterlimit="10"
         height="5"
         width="6"
         y="42"
         x="54"
         style="fill:none;stroke:#000000;stroke-width:2;stroke-linecap:round;stroke-linejoin:round;stroke-miterlimit:10" />
      <polyline
         id="polyline3815"
         points="43.5,23 46.5,23 46.5,26"
         stroke-miterlimit="10"
         style="fill:none;stroke:#000000;stroke-width:2;stroke-linecap:round;stroke-linejoin:round;stroke-miterlimit:10" />
      <path
         id="path3817"
         d="M 31.245,39.3396"
         stroke-miterlimit="10"
         inkscape:connector-curvature="0"
         style="fill:none;stroke:#000000;stroke-width:2;stroke-miterlimit:10" />
      <polyline
         id="polyline3819"
         points="22.5,54 22.5,46.8269 17.5,42"
         style="fill:none;stroke:#000000;stroke-width:2;stroke-linecap:round;stroke-linejoin:round" />
      <line
         id="line3821"
         y2="43.765701"
         y1="46.726501"
         x2="25.885"
         x1="23.0408"
         style="fill:none;stroke:#000000;stroke-width:2;stroke-linecap:round;stroke-linejoin:round" />
      <path
         id="path3823"
         d="m 41.0059,28.3393 c 0,-3.3123 -3.4447,-6.0025 -7.6937,-6.0025 -0.3549,0.0029 -0.7095,0.025 -1.0622,0.0662 -1.7995,-3.4553 -5.7065,-5.8554 -10.2499,-5.8554 -6.2478,0 -11.3122,4.5286 -11.3122,10.1144 0.0012,0.3692 0.0247,0.738 0.0704,1.1043 C 7.9656,28.6665 6,30.8102 6,33.3136 c 0,3.3123 3.4446,6.0025 7.6936,6.0025 1.6151,0.0139 3.2056,-0.4022 4.6137,-1.207 1.8177,1.4766 4.7264,2.4385 8.0154,2.4385 5.5105,0 9.9776,-2.6875 9.9776,-6.0025 -9e-4,-0.2191 -0.0214,-0.4377 -0.0612,-0.6531 2.7966,-0.9016 4.7668,-3.0467 4.7668,-5.5527 z"
         stroke-miterlimit="10"
         inkscape:connector-curvature="0"
         style="fill:none;stroke:#000000;stroke-width:2;stroke-linecap:round;stroke-miterlimit:10" />
      <line
         id="line3825"
         stroke-miterlimit="10"
         y2="36"
         y1="36"
         x2="42.5"
         x1="63.5"
         style="fill:none;stroke:#000000;stroke-width:2;stroke-linecap:round;stroke-linejoin:round;stroke-miterlimit:10" />
    </g>
  </g>
</svg>
